HIERARCHY
ROOT Hips
{
  OFFSET 28.3279 93.5426 -252.899
  CHANNELS 6 Xposition Yposition Zposition Zrotation Xrotation Yrotation
  JOINT ToSpine
  {
    OFFSET -0.0105055 1.38907 -7.13956
    CHANNELS 3 Zrotation Xrotation Yrotation
    JOINT Spine
    {
      OFFSET 0.0105055 10 1
      CHANNELS 3 Zrotation Xrotation Yrotation
      JOINT Spine1
      {
        OFFSET 0 12 1.60637
        CHANNELS 3 Zrotation Xrotation Yrotation
        JOINT Neck
        {
          OFFSET 0 27 2.26658
          CHANNELS 3 Zrotation Xrotation Yrotation
          JOINT Head
          {
            OFFSET 0 9 2.12705
            CHANNELS 3 Zrotation Xrotation Yrotation
            End Site
            {
              OFFSET 0 11 2
            }
          }
        }
        JOINT LeftShoulder
        {
          OFFSET 8 19.6109 2.86452
          CHANNELS 3 Zrotation Xrotation Yrotation
          JOINT LeftArm
          {
            OFFSET 12 1 0.681055
            CHANNELS 3 Zrotation Xrotation Yrotation
            JOINT LeftForeArm
            {
              OFFSET 19 0 -1.52608
              CHANNELS 3 Zrotation Xrotation Yrotation
              JOINT LeftHand
              {
                OFFSET 23 0 0
                CHANNELS 3 Zrotation Xrotation Yrotation
                End Site
                {
                  OFFSET 10 0 0
                }
              }
            }
          }
        }
        JOINT RightShoulder
        {
          OFFSET -8 19.6109 2.86452
          CHANNELS 3 Zrotation Xrotation Yrotation
          JOINT RightArm
          {
            OFFSET -12 1 0.681055
            CHANNELS 3 Zrotation Xrotation Yrotation
            JOINT RightForeArm
            {
              OFFSET -19 0 -1.52608
              CHANNELS 3 Zrotation Xrotation Yrotation
              JOINT RightHand
              {
                OFFSET -23 0 0
                CHANNELS 3 Zrotation Xrotation Yrotation
                End Site
                {
                  OFFSET -10 0 0
                }
              }
            }
          }
        }
      }
    }
  }
  JOINT LeftUpLeg
  {
    OFFSET 9 -7.17245 0
    CHANNELS 3 Zrotation Xrotation Yrotation
    JOINT LeftLeg
    {
      OFFSET 0 -44.1113 0
      CHANNELS 3 Zrotation Xrotation Yrotation
      JOINT LeftFoot
      {
        OFFSET 0 -36.1829 0
        CHANNELS 3 Zrotation Xrotation Yrotation
        JOINT LeftToeBase
        {
          OFFSET 0 -4.84184 13
          CHANNELS 3 Zrotation Xrotation Yrotation
          End Site
          {
            OFFSET 0 1 6
          }
        }
      }
    }
  }
  JOINT RightUpLeg
  {
    OFFSET -9 -7.17245 0
    CHANNELS 3 Zrotation Xrotation Yrotation
    JOINT RightLeg
    {
      OFFSET 0 -44.0551 0
      CHANNELS 3 Zrotation Xrotation Yrotation
      JOINT RightFoot
      {
        OFFSET 0 -36.1469 0
        CHANNELS 3 Zrotation Xrotation Yrotation
        JOINT RightToeBase
        {
          OFFSET 0 -4.92256 13
          CHANNELS 3 Zrotation Xrotation Yrotation
          End Site
          {
            OFFSET 0 1 6
          }
        }
      }
    }
  }
}
MOTION
Frames:	15
Frame Time:	0.0333333
51.7471 84.0497 16.1572 -7.41156 -11.5477 54.1903 0 0 0 15.4662 11.7269 -0.680529 -7.32847 -2.52418 0.901282 3.2826 -10.7213 7.60732 -6.17019 4.32775 9.45897 -34.6062 3.15609 -4.24661 -35.1566 6.01845 14.1657 13.4148 -3.21694 -103.24 -16.2912 0.740629 -5.17096 21.7189 5.3513 15.3897 30.197 9.67347 -8.21127 -8.78846 -2.31816 104.662 3.81675 0.0785006 2.35565 4.53113 -20.218 -7.40466 180 76.3852 178.421 35.5192 -21.5553 6.97784 1.6851 -23.3691 -2.17053 -11.949 -10.4636 -24.1385 -1.31055e-007 55.113 7.00996 -1.40892 -27.5411 -0.345313 3.79095 -14.1156 -3.54065 
54.6513 82.9469 20.6748 -7.03175 -10.1008 52.3994 0 0 0 15.7002 15.3102 3.23342 -10.3063 -4.1598 5.96727 2.87564 -12.6045 6.51028 -4.85172 4.29951 7.92067 -33.5162 3.00501 -4.08186 -41.6332 5.39681 29.7249 14.4931 -4.34745 -106.344 -13.103 0.678179 -5.89996 17.31 4.16597 13.7464 29.143 6.6912 8.49365 -10.6609 -2.61972 103.648 4.31274 0.162029 4.30114 1.034 -29.9264 -0.702757 180 76.3901 177.878 36.3736 -22.6684 7.53503 1.55746 -21.5266 -1.59833 -11.606 -8.57386 -20.854 -4.5175e-007 57.2709 5.04868 -1.29398 -32.3894 -0.375821 3.81476 -14.2125 -3.4224 
58.7309 83.152 25.4938 -7.98868 -10.1674 52.9012 0 0 0 18.4268 18.0299 5.14813 -13.7442 -5.94096 9.34067 2.83203 -14.7956 4.46418 -4.81601 4.20046 5.89506 -31.1593 2.54472 -3.32885 -43.6808 7.09676 42.7168 13.9967 -5.11518 -109.681 -13.5023 0.875404 -7.38491 14.665 3.71391 13.6077 31.644 2.68135 20.7892 -13.2022 -3.70924 105.417 5.28596 0.24675 5.34151 -0.0028982 -37.9418 4.56228 180 82.7396 175.928 33.0152 -23.0488 6.91592 1.69832 -21.3037 -4.52518 -8.45515 -2.68215 -20.3553 -7.03756e-008 51.9616 2.70448 -8.92729 -30.6045 -2.44719 5.34191 -20.8899 -5.27131 
64.1852 84.5572 31.0102 -8.2033 -9.95282 55.3099 0 0 0 19.0249 18.9025 7.10955 -15.9937 -6.46316 11.9635 2.85169 -18.633 2.00793 -4.62352 6.39959 3.50589 -26.2398 2.31492 -3.63441 -47.3949 7.48051 51.7124 13.8046 -5.70568 -112.029 -13.1728 0.87713 -7.58568 11.889 3.39331 14.1926 37.0217 1.37451 27.8643 -13.5597 -4.53758 108.161 6.18416 0.288307 5.33326 -1.32907 -41.8576 9.59648 1.56723e-006 85.9264 -7.95066 31.4406 -21.0046 5.97385 1.73277 -20.0194 -5.6755 -5.68172 6.00651 -21.0769 6.97951e-008 42.4266 4.56239 -9.53706 -22.6137 -1.91112 6.89 -28.9799 -7.89657 
70.6407 86.7293 36.9938 -9.09726 -10.5927 58.8762 0 0 0 18.6195 17.5745 9.18295 -15.7029 -5.8553 13.7689 2.77603 -23.5316 -0.432617 -4.30377 10.5547 1.18211 -22.667 2.45241 -4.94427 -50.8599 6.89689 57.2451 12.8362 -5.70142 -113.557 -12.266 0.767226 -7.13111 8.29391 2.78577 13.9989 42.5682 4.01195 31.1506 -11.8318 -4.4367 110.267 6.02637 0.393142 7.45819 -1.15151 -42.2623 15.413 -4.11771e-007 72.5396 -10.4721 28.39 -19.7004 5.0296 1.83783 -15.6355 -7.51412 -0.871515 14.9652 -23.9677 -9.18599e-008 29.9336 6.29579 -8.6304 -5.58029 -0.421404 9.73167 -38.9747 -5.60993 
78.0292 88.6727 43.1666 -10.927 -11.5768 62.5875 0 0 0 19.2222 13.1751 10.2214 -16.3039 -3.77985 14.4082 6.08222 -27.8823 -1.77913 -4.72651 13.3212 0.282358 -18.0534 2.459 -6.44227 -55.212 5.53431 59.7411 11.4159 -5.42852 -115.104 -10.5584 0.793134 -8.56776 8.44811 2.75185 13.6415 45.068 9.69829 32.1726 -18.4363 -7.0056 110.096 6.1386 0.47422 8.82653 -0.520209 -40.265 21.7256 5.97729e-007 58.979 -14.0307 26.6495 -15.7484 3.75226 1.81675 -14.3299 -7.36622 4.32453 21.1264 -14.1653 3.74391 20.8584 -0.234385 -12.137 7.71574 0.821515 7.87836 -32.0708 -6.1821 
84.6849 89.2336 48.6109 -13.8931 -11.7093 65.6031 0 0 0 18.9323 7.48772 10.6463 -16.1709 -1.14303 14.0087 8.47571 -30.0153 -1.04693 -3.75995 12.4417 0.546306 -18.3503 2.84812 -7.88078 -56.6724 3.92079 59.8168 12.5176 -6.40141 -116.665 -8.95627 0.696035 -8.86968 8.99047 2.81587 13.5233 45.7825 16.6902 32.3746 -21.4903 -7.05618 107.328 6.85494 0.428741 7.1493 -0.452292 -39.9743 25.9118 3.11064e-007 48.8957 -19.4033 24.74 -10.2302 2.24933 1.90245 -12.0952 -8.06812 7.13343 19.6045 -14.9439 1.47716 26.2194 7.18724 -17.9094 4.02062 0.633799 3.99977 -15.0579 -5.35025 
90.8071 88.9897 52.8176 -14.2831 -12.7649 66.4699 0 0 0 18.8889 6.81651 9.70195 -15.867 -0.506988 12.9118 9.89571 -30.5748 0.277826 -4.09012 12.2771 1.81081 -21.1907 2.8509 -6.8036 -57.1428 3.73301 55.2273 15.5281 -7.53553 -115.266 -7.51126 0.627399 -9.53589 12.003 3.47851 14.5338 46.3484 22.1707 27.7703 -21.815 -4.5823 101.287 6.35963 0.397029 7.13734 -0.578545 -35.8353 25.7426 -1.40772e-007 40.9976 -22.1317 21.7933 -6.21605 1.19778 1.88767 -9.08856 -7.94163 6.19136 16.7956 -15.595 -4.03496e-007 40.6086 9.12805 -23.1554 -0.341876 -0.0700387 5.30524 -20.6385 -4.93105 
97.3538 88.6905 56.8254 -12.4697 -14.7527 69.2774 0 0 0 16.9065 7.80375 7.29626 -12.5729 -0.406207 10.2618 12.2187 -27.7443 2.299 -4.86068 10.0628 4.15547 -24.11 3.03307 -6.46657 -57.6098 3.3461 46.3179 18.101 -7.22419 -111.043 -7.37278 0.564163 -8.73949 15.77 4.34075 15.567 48.6829 23.3735 17.7601 -20.0587 -1.26958 93.4725 4.17 0.272248 7.46748 0.137731 -29.0134 25.4513 -1.08105e-006 46.2085 -25.1498 27.3219 -15.8189 3.86795 4.20877 -1.35901 -18.1144 5.01402 13.6598 -16.3228 1.59542e-007 58.4779 -4.52145 -26.687 -5.9025 -1.40119 4.2667 -16.1968 -4.94545 
103.406 88.2208 60.6751 -10.8834 -14.6132 73.0885 0 0 0 12.1619 9.75021 4.68873 -8.89904 -2.72612 7.00085 14.6637 -23.6093 3.50416 -4.9348 6.56145 5.8473 -27.5779 3.24481 -6.10816 -54.8511 5.57724 34.6193 14.5487 -5.05327 -108.747 -7.55637 0.482522 -7.29696 19.9833 4.8491 14.6795 51.0994 21.0437 6.44603 -21.193 0.82219 87.8805 3.94119 0.285882 8.29435 -1.6073 -21.6613 22.6294 1.26941e-007 46.5984 -26.3235 35.1892 -24.9484 8.02578 2.565 7.20749 -10.1824 2.72793 5.32127 -14.7363 -1.37641e-006 79.3488 -19.7353 -25.771 -12.2563 -2.81398 3.20023 -11.3828 -6.39602 
108.995 86.7154 64.4623 -9.97245 -10.6683 77.2548 0 0 0 4.54517 10.2875 2.60107 -6.02219 -2.71574 4.10113 16.2295 -25.1774 4.60291 -3.30762 6.23571 6.27866 -31.6623 3.01271 -4.47506 -44.9884 10.8769 13.9523 10.8827 -3.8981 -109.474 -6.20331 0.20649 -3.80928 24.4882 5.40737 13.9789 51.3952 13.1669 -6.0319 -25.4202 0.873876 88.162 4.31321 0.265437 7.03984 -6.14955 -17.2239 19.0858 -5.05122e-007 47.6245 -23.5523 41.5153 -28.1773 10.8676 2.74164 -1.99387 -11.7668 -3.2547 -6.39371 -11.9828 -180 80.4995 157.507 -32.2637 -18.9085 -5.51498 3.73252 -13.8713 -6.33937 
114.785 85.4999 67.9423 -9.59036 -11.3643 84.3757 0 0 0 4.54411 11.2877 -0.749298 -4.75486 -1.38306 0.606654 17.5307 -25.7613 5.05069 -3.96095 3.14174 6.77443 -31.2105 3.08473 -4.7635 -36.4799 12.0464 -12.3699 10.204 -3.43368 -108.404 -8.07276 0.372619 -5.27679 22.9966 4.73834 12.5745 54.2659 3.6942 -18.8523 -24.064 -0.360847 90.808 4.26899 0.161552 4.33245 -5.15534 -13.025 12.671 8.14663e-007 50.4794 -22.2545 44.1479 -32.3413 13.4134 2.92161 -7.16067 -13.7268 -3.83365 -18.3176 -9.57689 180 67.306 162.945 -35.3007 -24.4242 -7.87887 3.53438 -12.9959 -5.18369 
121.248 85.1266 71.1072 -8.99854 -12.4165 91.1552 0 0 0 3.32759 12.3078 -3.52683 -0.889203 -0.794352 -3.01366 19.4153 -26.2234 5.38515 -5.37232 3.33911 7.47059 -27.436 3.27666 -6.24178 -33.5675 8.85786 -34.1647 9.09455 -2.80909 -107.022 -9.47633 0.483413 -5.8273 19.6289 3.44751 9.63665 56.9053 -0.65482 -30.8235 -24.3332 -1.80348 93.981 -0.99341 -0.0693752 7.98939 -2.05201 -6.87633 8.74359 -2.05355e-007 49.3533 -25.5574 42.6577 -36.4973 14.6724 3.98794 -4.86542 -18.5169 -4.845 -30.5875 -9.09907 -180 62.9883 162.078 -37.3519 -27.2815 -9.37877 3.62225 -13.3912 -4.89437 
129.661 85.5721 73.7536 -8.48468 -14.0589 93.9277 0 0 0 2.85879 12.4637 -5.62615 2.89456 -0.787139 -6.07683 20.4706 -26.3381 6.67416 -5.91942 5.19848 8.88879 -23.4121 3.27898 -7.5102 -33.2014 3.96742 -47.2089 11.9496 -4.03716 -108.4 -9.41783 0.583394 -7.07352 17.4026 2.93007 8.62974 57.4278 0.182739 -40.6001 -19.7132 -1.71638 94.7784 4.98959 0.306357 7.02259 2.32667 2.03978 8.19192 4.67869e-007 42.7004 -28.1331 37.6921 -33.4737 11.7208 3.32921 -11.261 -18.0088 -3.10719 -41.4911 -7.25709 180 67.6304 156.739 -36.3995 -29.2324 -9.80108 3.73298 -13.8727 -6.98664 
139.459 86.93 75.3292 -8.01775 -16.061 94.5347 0 0 0 4.44862 11.7473 -7.98415 5.35915 -0.761395 -8.76125 22.3312 -26.1409 9.27941 -7.56613 7.01056 11.9106 -17.2056 2.5764 -7.25455 -35.2526 1.82672 -53.5699 10.6625 -4.10505 -110.818 -8.13982 0.446446 -6.26823 16.3813 3.15635 10.0861 57.5192 1.01922 -48.27 -18.3489 -1.50757 94.5354 4.32194 0.304147 8.04706 5.65523 11.9883 6.16733 -2.19164e-007 31.1292 -25.9258 27.4241 -22.582 5.57797 2.14114 -24.1798 -18.4153 0.903018 -48.5542 -4.58997 180 79.6275 156.898 -35.4095 -28.8367 -9.38395 3.7657 -14.0283 -6.90305 
